<mxfile host="app.diagrams.net" modified="2023-11-13T20:17:29.730Z" agent="Mozilla/5.0 (Macintosh; Intel Mac OS X 10_15_7) AppleWebKit/605.1.15 (KHTML, like Gecko) Version/17.0 Safari/605.1.15" version="22.1.0" etag="U097WHRr7ZyNu6UU1nYQ" type="github">
  <diagram name="Page-1" id="p19KSNvYjUqqK6xyMW1n">
    <mxGraphModel>
      <root>
        <mxCell id="0" />
        <mxCell id="1" parent="0" />
      </root>
    </mxGraphModel>
  </diagram>
</mxfile>
